<svg xmlns="http://www.w3.org/2000/svg" width="128" height="64"
 viewBox="0 0 128 64" shape-rendering="crispEdges" fill="#000">
<rect x="4" y="2" width="2" height="1"/><rect x="4" y="3" width="4" height="1"/><rect x="4" y="4" width="6" height="1"/><rect x="4" y="5" width="8" height="1"/><rect x="4" y="6" width="9" height="1"/><rect x="4" y="7" width="10" height="1"/><rect x="4" y="8" width="10" height="1"/><rect x="4" y="9" width="9" height="1"/><rect x="4" y="10" width="8" height="1"/><rect x="4" y="11" width="6" height="1"/><rect x="4" y="12" width="4" height="1"/><rect x="4" y="13" width="2" height="1"/><rect x="20" y="2" width="3" height="1"/><rect x="25" y="2" width="3" height="1"/><rect x="20" y="3" width="3" height="1"/><rect x="25" y="3" width="3" height="1"/><rect x="20" y="4" width="3" height="1"/><rect x="25" y="4" width="3" height="1"/><rect x="20" y="5" width="3" height="1"/><rect x="25" y="5" width="3" height="1"/><rect x="20" y="6" width="3" height="1"/><rect x="25" y="6" width="3" height="1"/><rect x="20" y="7" width="3" height="1"/><rect x="25" y="7" width="3" height="1"/><rect x="20" y="8" width="3" height="1"/><rect x="25" y="8" width="3" height="1"/><rect x="20" y="9" width="3" height="1"/><rect x="25" y="9" width="3" height="1"/><rect x="20" y="10" width="3" height="1"/><rect x="25" y="10" width="3" height="1"/><rect x="20" y="11" width="3" height="1"/><rect x="25" y="11" width="3" height="1"/><rect x="20" y="12" width="3" height="1"/><rect x="25" y="12" width="3" height="1"/><rect x="20" y="13" width="3" height="1"/><rect x="25" y="13" width="3" height="1"/><rect x="34" y="2" width="12" height="1"/><rect x="34" y="3" width="12" height="1"/><rect x="34" y="4" width="12" height="1"/><rect x="34" y="5" width="12" height="1"/><rect x="34" y="6" width="12" height="1"/><rect x="34" y="7" width="12" height="1"/><rect x="34" y="8" width="12" height="1"/><rect x="34" y="9" width="12" height="1"/><rect x="34" y="10" width="12" height="1"/><rect x="34" y="11" width="12" height="1"/><rect x="34" y="12" width="12" height="1"/><rect x="34" y="13" width="12" height="1"/><rect x="50" y="2" width="3" height="1"/><rect x="60" y="2" width="1" height="1"/><rect x="50" y="3" width="3" height="1"/><rect x="59" y="3" width="2" height="1"/><rect x="50" y="4" width="3" height="1"/><rect x="58" y="4" width="3" height="1"/><rect x="50" y="5" width="3" height="1"/><rect x="57" y="5" width="4" height="1"/><rect x="50" y="6" width="3" height="1"/><rect x="56" y="6" width="5" height="1"/><rect x="50" y="7" width="3" height="1"/><rect x="55" y="7" width="6" height="1"/><rect x="50" y="8" width="3" height="1"/><rect x="55" y="8" width="6" height="1"/><rect x="50" y="9" width="3" height="1"/><rect x="56" y="9" width="5" height="1"/><rect x="50" y="10" width="3" height="1"/><rect x="57" y="10" width="4" height="1"/><rect x="50" y="11" width="3" height="1"/><rect x="58" y="11" width="3" height="1"/><rect x="50" y="12" width="3" height="1"/><rect x="59" y="12" width="2" height="1"/><rect x="50" y="13" width="3" height="1"/><rect x="60" y="13" width="1" height="1"/><rect x="67" y="2" width="1" height="1"/><rect x="75" y="2" width="3" height="1"/><rect x="67" y="3" width="2" height="1"/><rect x="75" y="3" width="3" height="1"/><rect x="67" y="4" width="3" height="1"/><rect x="75" y="4" width="3" height="1"/><rect x="67" y="5" width="4" height="1"/><rect x="75" y="5" width="3" height="1"/><rect x="67" y="6" width="5" height="1"/><rect x="75" y="6" width="3" height="1"/><rect x="67" y="7" width="6" height="1"/><rect x="75" y="7" width="3" height="1"/><rect x="67" y="8" width="6" height="1"/><rect x="75" y="8" width="3" height="1"/><rect x="67" y="9" width="5" height="1"/><rect x="75" y="9" width="3" height="1"/><rect x="67" y="10" width="4" height="1"/><rect x="75" y="10" width="3" height="1"/><rect x="67" y="11" width="3" height="1"/><rect x="75" y="11" width="3" height="1"/><rect x="67" y="12" width="2" height="1"/><rect x="75" y="12" width="3" height="1"/><rect x="67" y="13" width="1" height="1"/><rect x="75" y="13" width="3" height="1"/><rect x="87" y="2" width="2" height="1"/><rect x="86" y="3" width="4" height="1"/><rect x="85" y="4" width="6" height="1"/><rect x="84" y="5" width="8" height="1"/><rect x="83" y="6" width="10" height="1"/><rect x="82" y="7" width="12" height="1"/><rect x="82" y="10" width="12" height="1"/><rect x="82" y="11" width="12" height="1"/><rect x="82" y="12" width="12" height="1"/><rect x="98" y="3" width="3" height="1"/><rect x="107" y="3" width="3" height="1"/><rect x="98" y="4" width="4" height="1"/><rect x="106" y="4" width="4" height="1"/><rect x="99" y="5" width="4" height="1"/><rect x="105" y="5" width="4" height="1"/><rect x="100" y="6" width="8" height="1"/><rect x="101" y="7" width="6" height="1"/><rect x="101" y="8" width="6" height="1"/><rect x="100" y="9" width="8" height="1"/><rect x="99" y="10" width="4" height="1"/><rect x="105" y="10" width="4" height="1"/><rect x="98" y="11" width="4" height="1"/><rect x="106" y="11" width="4" height="1"/><rect x="98" y="12" width="3" height="1"/><rect x="107" y="12" width="3" height="1"/><rect x="114" y="10" width="12" height="1"/><rect x="114" y="11" width="12" height="1"/><rect x="114" y="12" width="12" height="1"/><rect x="2" y="18" width="12" height="1"/><rect x="2" y="19" width="12" height="1"/><rect x="2" y="20" width="12" height="1"/><rect x="2" y="21" width="3" height="1"/><rect x="11" y="21" width="3" height="1"/><rect x="2" y="22" width="3" height="1"/><rect x="11" y="22" width="3" height="1"/><rect x="2" y="23" width="3" height="1"/><rect x="11" y="23" width="3" height="1"/><rect x="2" y="24" width="3" height="1"/><rect x="11" y="24" width="3" height="1"/><rect x="2" y="25" width="3" height="1"/><rect x="11" y="25" width="3" height="1"/><rect x="2" y="26" width="3" height="1"/><rect x="11" y="26" width="3" height="1"/><rect x="2" y="27" width="12" height="1"/><rect x="2" y="28" width="12" height="1"/><rect x="2" y="29" width="12" height="1"/><rect x="22" y="18" width="8" height="1"/><rect x="22" y="19" width="8" height="1"/><rect x="22" y="20" width="8" height="1"/><rect x="22" y="21" width="8" height="1"/><rect x="22" y="22" width="8" height="1"/><rect x="22" y="23" width="8" height="1"/><rect x="18" y="24" width="8" height="1"/><rect x="18" y="25" width="8" height="1"/><rect x="18" y="26" width="8" height="1"/><rect x="18" y="27" width="8" height="1"/><rect x="18" y="28" width="8" height="1"/><rect x="18" y="29" width="8" height="1"/><rect x="34" y="19" width="3" height="1"/><rect x="43" y="19" width="3" height="1"/><rect x="34" y="20" width="4" height="1"/><rect x="42" y="20" width="4" height="1"/><rect x="35" y="21" width="4" height="1"/><rect x="41" y="21" width="4" height="1"/><rect x="36" y="22" width="8" height="1"/><rect x="37" y="23" width="6" height="1"/><rect x="38" y="24" width="4" height="1"/><rect x="39" y="25" width="2" height="1"/><rect x="55" y="22" width="2" height="1"/><rect x="54" y="23" width="4" height="1"/><rect x="53" y="24" width="6" height="1"/><rect x="52" y="25" width="8" height="1"/><rect x="51" y="26" width="4" height="1"/><rect x="57" y="26" width="4" height="1"/><rect x="50" y="27" width="4" height="1"/><rect x="58" y="27" width="4" height="1"/><rect x="50" y="28" width="3" height="1"/><rect x="59" y="28" width="3" height="1"/><rect x="67" y="18" width="2" height="1"/><rect x="67" y="19" width="3" height="1"/><rect x="67" y="20" width="4" height="1"/><rect x="68" y="21" width="4" height="1"/><rect x="69" y="22" width="4" height="1"/><rect x="70" y="23" width="4" height="1"/><rect x="70" y="24" width="4" height="1"/><rect x="69" y="25" width="4" height="1"/><rect x="68" y="26" width="4" height="1"/><rect x="67" y="27" width="4" height="1"/><rect x="67" y="28" width="3" height="1"/><rect x="67" y="29" width="2" height="1"/><rect x="91" y="18" width="2" height="1"/><rect x="90" y="19" width="3" height="1"/><rect x="89" y="20" width="4" height="1"/><rect x="88" y="21" width="4" height="1"/><rect x="87" y="22" width="4" height="1"/><rect x="86" y="23" width="4" height="1"/><rect x="86" y="24" width="4" height="1"/><rect x="87" y="25" width="4" height="1"/><rect x="88" y="26" width="4" height="1"/><rect x="89" y="27" width="4" height="1"/><rect x="90" y="28" width="3" height="1"/><rect x="91" y="29" width="2" height="1"/><rect x="106" y="20" width="3" height="1"/><rect x="105" y="21" width="3" height="1"/><rect x="104" y="22" width="3" height="1"/><rect x="98" y="23" width="3" height="1"/><rect x="103" y="23" width="3" height="1"/><rect x="99" y="24" width="6" height="1"/><rect x="100" y="25" width="4" height="1"/><rect x="118" y="18" width="3" height="1"/><rect x="118" y="19" width="3" height="1"/><rect x="118" y="20" width="3" height="1"/><rect x="118" y="21" width="3" height="1"/><rect x="118" y="22" width="3" height="1"/><rect x="118" y="23" width="3" height="1"/><rect x="118" y="24" width="3" height="1"/><rect x="117" y="27" width="4" height="1"/><rect x="117" y="28" width="4" height="1"/><rect x="5" y="36" width="6" height="1"/><rect x="4" y="37" width="8" height="1"/><rect x="4" y="38" width="8" height="1"/><rect x="4" y="39" width="8" height="1"/><rect x="4" y="40" width="8" height="1"/><rect x="4" y="41" width="8" height="1"/><rect x="5" y="42" width="6" height="1"/><rect x="18" y="39" width="12" height="1"/><rect x="18" y="40" width="12" height="1"/><rect x="18" y="41" width="12" height="1"/><rect x="38" y="34" width="3" height="1"/><rect x="38" y="35" width="3" height="1"/><rect x="38" y="36" width="3" height="1"/><rect x="38" y="37" width="3" height="1"/><rect x="38" y="38" width="3" height="1"/><rect x="34" y="39" width="12" height="1"/><rect x="34" y="40" width="12" height="1"/><rect x="34" y="41" width="12" height="1"/><rect x="38" y="42" width="3" height="1"/><rect x="38" y="43" width="3" height="1"/><rect x="38" y="44" width="3" height="1"/><rect x="38" y="45" width="3" height="1"/><rect x="52" y="37" width="8" height="1"/><rect x="52" y="38" width="8" height="1"/><rect x="53" y="39" width="6" height="1"/><rect x="53" y="40" width="6" height="1"/><rect x="54" y="41" width="4" height="1"/><rect x="55" y="42" width="2" height="1"/><rect x="68" y="34" width="6" height="1"/><rect x="67" y="35" width="8" height="1"/><rect x="66" y="36" width="3" height="1"/><rect x="73" y="36" width="3" height="1"/><rect x="66" y="37" width="2" height="1"/><rect x="74" y="37" width="2" height="1"/><rect x="66" y="38" width="2" height="1"/><rect x="74" y="38" width="2" height="1"/><rect x="66" y="39" width="3" height="1"/><rect x="73" y="39" width="3" height="1"/><rect x="67" y="40" width="8" height="1"/><rect x="68" y="41" width="6" height="1"/><rect x="70" y="42" width="4" height="1"/><rect x="71" y="43" width="4" height="1"/><rect x="72" y="44" width="4" height="1"/><rect x="73" y="45" width="3" height="1"/><rect x="87" y="35" width="4" height="1"/><rect x="87" y="36" width="4" height="1"/><rect x="87" y="39" width="3" height="1"/><rect x="87" y="40" width="3" height="1"/><rect x="87" y="41" width="3" height="1"/><rect x="87" y="42" width="3" height="1"/><rect x="87" y="43" width="3" height="1"/><rect x="87" y="44" width="3" height="1"/><rect x="87" y="45" width="3" height="1"/><rect x="100" y="34" width="6" height="1"/><rect x="99" y="35" width="8" height="1"/><rect x="98" y="36" width="3" height="1"/><rect x="105" y="36" width="3" height="1"/><rect x="105" y="37" width="3" height="1"/><rect x="104" y="38" width="3" height="1"/><rect x="103" y="39" width="3" height="1"/><rect x="102" y="40" width="3" height="1"/><rect x="102" y="41" width="3" height="1"/><rect x="101" y="43" width="4" height="1"/><rect x="101" y="44" width="4" height="1"/><rect x="114" y="38" width="3" height="1"/><rect x="118" y="38" width="3" height="1"/><rect x="122" y="38" width="3" height="1"/><rect x="114" y="39" width="3" height="1"/><rect x="118" y="39" width="3" height="1"/><rect x="122" y="39" width="3" height="1"/><rect x="114" y="40" width="3" height="1"/><rect x="118" y="40" width="3" height="1"/><rect x="122" y="40" width="3" height="1"/><rect x="6" y="50" width="4" height="1"/><rect x="6" y="51" width="4" height="1"/><rect x="6" y="52" width="4" height="1"/><rect x="6" y="53" width="4" height="1"/><rect x="26" y="51" width="4" height="1"/><rect x="26" y="52" width="4" height="1"/><rect x="26" y="53" width="4" height="1"/><rect x="26" y="54" width="4" height="1"/><rect x="42" y="54" width="4" height="1"/><rect x="42" y="55" width="4" height="1"/><rect x="42" y="56" width="4" height="1"/><rect x="42" y="57" width="4" height="1"/><rect x="58" y="57" width="4" height="1"/><rect x="58" y="58" width="4" height="1"/><rect x="58" y="59" width="4" height="1"/><rect x="58" y="60" width="4" height="1"/><rect x="70" y="58" width="4" height="1"/><rect x="70" y="59" width="4" height="1"/><rect x="70" y="60" width="4" height="1"/><rect x="70" y="61" width="4" height="1"/><rect x="82" y="57" width="4" height="1"/><rect x="82" y="58" width="4" height="1"/><rect x="82" y="59" width="4" height="1"/><rect x="82" y="60" width="4" height="1"/><rect x="98" y="54" width="4" height="1"/><rect x="98" y="55" width="4" height="1"/><rect x="98" y="56" width="4" height="1"/><rect x="98" y="57" width="4" height="1"/><rect x="114" y="51" width="4" height="1"/><rect x="114" y="52" width="4" height="1"/><rect x="114" y="53" width="4" height="1"/><rect x="114" y="54" width="4" height="1"/>
</svg>
